<mxfile host="" modified="2020-07-05T11:17:37.943Z" agent="5.0 (Macintosh; Intel Mac OS X 10_15_5) AppleWebKit/537.36 (KHTML, like Gecko) Code/1.46.1 Chrome/78.0.3904.130 Electron/7.3.1 Safari/537.36" etag="781sIhi45Qo6xLxhM3q8" version="13.1.3">
    <diagram id="6hGFLwfOUW9BJ-s0fimq" name="Page-1">
        <mxGraphModel dx="956" dy="428" grid="1" gridSize="10" guides="1" tooltips="1" connect="1" arrows="1" fold="1" page="1" pageScale="1" pageWidth="827" pageHeight="1169" math="0" shadow="0">
            <root>
                <mxCell id="0"/>
                <mxCell id="1" parent="0"/>
                <mxCell id="3" value="" style="ellipse;html=1;shape=startState;fillColor=#000000;strokeColor=#ff0000;" parent="1" vertex="1">
                    <mxGeometry x="655" y="10" width="30" height="30" as="geometry"/>
                </mxCell>
                <mxCell id="4" value="" style="edgeStyle=orthogonalEdgeStyle;html=1;verticalAlign=bottom;endArrow=open;endSize=8;strokeColor=#ff0000;" parent="1" source="3" edge="1">
                    <mxGeometry relative="1" as="geometry">
                        <mxPoint x="670" y="100" as="targetPoint"/>
                    </mxGeometry>
                </mxCell>
                <mxCell id="14" style="edgeStyle=orthogonalEdgeStyle;rounded=0;orthogonalLoop=1;jettySize=auto;html=1;exitX=0.5;exitY=1;exitDx=0;exitDy=0;entryX=0.5;entryY=0;entryDx=0;entryDy=0;" parent="1" source="5" target="7" edge="1">
                    <mxGeometry relative="1" as="geometry"/>
                </mxCell>
                <mxCell id="5" value="Turn Player Property of isTurn = True" style="html=1;" parent="1" vertex="1">
                    <mxGeometry x="560" y="100" width="220" height="50" as="geometry"/>
                </mxCell>
                <mxCell id="7" value="&lt;font style=&quot;font-size: 14px&quot;&gt;Is player in Jail?&lt;/font&gt;" style="rhombus;whiteSpace=wrap;html=1;strokeColor=#ff0001;" parent="1" vertex="1">
                    <mxGeometry x="575" y="170" width="190" height="100" as="geometry"/>
                </mxCell>
                <mxCell id="8" value="yes" style="edgeStyle=orthogonalEdgeStyle;html=1;align=left;verticalAlign=bottom;endArrow=open;endSize=8;strokeColor=#ff0000;" parent="1" source="7" edge="1">
                    <mxGeometry y="-10" relative="1" as="geometry">
                        <mxPoint x="535" y="220" as="targetPoint"/>
                        <mxPoint as="offset"/>
                    </mxGeometry>
                </mxCell>
                <mxCell id="9" value="no" style="edgeStyle=orthogonalEdgeStyle;html=1;align=left;verticalAlign=top;endArrow=open;endSize=8;strokeColor=#ff0000;entryX=0.5;entryY=0;entryDx=0;entryDy=0;" parent="1" source="7" target="10" edge="1">
                    <mxGeometry x="-1" relative="1" as="geometry">
                        <mxPoint x="670" y="310" as="targetPoint"/>
                    </mxGeometry>
                </mxCell>
                <mxCell id="10" value="Roll Dice" style="html=1;" parent="1" vertex="1">
                    <mxGeometry x="630" y="320" width="80" height="50" as="geometry"/>
                </mxCell>
                <mxCell id="15" value="Move number of squares equal to the number on dice" style="html=1;" parent="1" vertex="1">
                    <mxGeometry x="450" y="410" width="305" height="50" as="geometry"/>
                </mxCell>
                <mxCell id="18" value="&lt;font style=&quot;font-size: 14px&quot;&gt;Is player on a property or station?&lt;/font&gt;" style="rhombus;whiteSpace=wrap;html=1;strokeColor=#ff0001;" parent="1" vertex="1">
                    <mxGeometry x="582.5" y="650" width="190" height="100" as="geometry"/>
                </mxCell>
                <mxCell id="19" value="no" style="edgeStyle=orthogonalEdgeStyle;html=1;align=left;verticalAlign=bottom;endArrow=open;endSize=8;strokeColor=#ff0000;" parent="1" source="18" edge="1">
                    <mxGeometry y="-10" relative="1" as="geometry">
                        <mxPoint x="542.5" y="700" as="targetPoint"/>
                        <mxPoint as="offset"/>
                    </mxGeometry>
                </mxCell>
                <mxCell id="22" value="&lt;font style=&quot;font-size: 14px&quot;&gt;Does the player own that property?&lt;/font&gt;" style="rhombus;whiteSpace=wrap;html=1;strokeColor=#ff0001;" parent="1" vertex="1">
                    <mxGeometry x="582.5" y="990" width="190" height="100" as="geometry"/>
                </mxCell>
                <mxCell id="23" value="yes" style="edgeStyle=orthogonalEdgeStyle;html=1;align=left;verticalAlign=bottom;endArrow=open;endSize=8;strokeColor=#ff0000;" parent="1" edge="1" source="22">
                    <mxGeometry y="-10" relative="1" as="geometry">
                        <mxPoint x="590" y="1450" as="targetPoint"/>
                        <mxPoint as="offset"/>
                        <mxPoint x="597.5" y="1040" as="sourcePoint"/>
                        <Array as="points">
                            <mxPoint x="678" y="1450"/>
                        </Array>
                    </mxGeometry>
                </mxCell>
                <mxCell id="25" value="&lt;font style=&quot;font-size: 14px&quot;&gt;Does another player own&lt;br&gt;the property?&lt;br&gt;&lt;/font&gt;" style="rhombus;whiteSpace=wrap;html=1;strokeColor=#ff0001;" parent="1" vertex="1">
                    <mxGeometry x="377.5" y="990" width="190" height="100" as="geometry"/>
                </mxCell>
                <mxCell id="26" value="no" style="edgeStyle=orthogonalEdgeStyle;html=1;align=left;verticalAlign=bottom;endArrow=open;endSize=8;strokeColor=#ff0000;" parent="1" source="25" edge="1">
                    <mxGeometry y="-10" relative="1" as="geometry">
                        <mxPoint x="327.5" y="1040" as="targetPoint"/>
                        <mxPoint as="offset"/>
                    </mxGeometry>
                </mxCell>
                <mxCell id="27" value="yes" style="edgeStyle=orthogonalEdgeStyle;html=1;align=left;verticalAlign=top;endArrow=open;endSize=8;strokeColor=#ff0000;" parent="1" source="25" edge="1">
                    <mxGeometry x="-1" relative="1" as="geometry">
                        <mxPoint x="472.5" y="1140" as="targetPoint"/>
                    </mxGeometry>
                </mxCell>
                <mxCell id="28" value="&lt;font style=&quot;font-size: 14px&quot;&gt;Does the player want to buy the property?&lt;br&gt;&lt;/font&gt;" style="rhombus;whiteSpace=wrap;html=1;strokeColor=#ff0001;" parent="1" vertex="1">
                    <mxGeometry x="137.5" y="990" width="190" height="100" as="geometry"/>
                </mxCell>
                <mxCell id="29" value="" style="endArrow=open;endFill=1;endSize=12;html=1;entryX=0.5;entryY=0;entryDx=0;entryDy=0;exitX=0.5;exitY=1;exitDx=0;exitDy=0;" parent="1" source="10" edge="1">
                    <mxGeometry width="160" relative="1" as="geometry">
                        <mxPoint x="375" y="410" as="sourcePoint"/>
                        <mxPoint x="667.5" y="410" as="targetPoint"/>
                    </mxGeometry>
                </mxCell>
                <mxCell id="33" value="Remove Player &lt;br&gt;from Game" style="html=1;" parent="1" vertex="1">
                    <mxGeometry x="107.5" y="1160" width="220" height="50" as="geometry"/>
                </mxCell>
                <mxCell id="34" value="Next Players turn" style="html=1;" parent="1" vertex="1">
                    <mxGeometry x="367.5" y="1420" width="220" height="50" as="geometry"/>
                </mxCell>
                <mxCell id="35" value="&lt;font style=&quot;font-size: 14px&quot;&gt;Does the player have &lt;br&gt;enough money for the rent?&lt;br&gt;&lt;/font&gt;" style="rhombus;whiteSpace=wrap;html=1;strokeColor=#ff0001;" parent="1" vertex="1">
                    <mxGeometry x="377.5" y="1140" width="190" height="100" as="geometry"/>
                </mxCell>
                <mxCell id="36" value="no" style="edgeStyle=orthogonalEdgeStyle;html=1;align=left;verticalAlign=bottom;endArrow=open;endSize=8;strokeColor=#ff0000;" parent="1" edge="1">
                    <mxGeometry y="-10" relative="1" as="geometry">
                        <mxPoint x="327.5" y="1189.17" as="targetPoint"/>
                        <mxPoint as="offset"/>
                        <mxPoint x="377.5" y="1189.17" as="sourcePoint"/>
                    </mxGeometry>
                </mxCell>
                <mxCell id="37" value="yes" style="edgeStyle=orthogonalEdgeStyle;html=1;align=left;verticalAlign=top;endArrow=open;endSize=8;strokeColor=#ff0000;exitX=0.5;exitY=1;exitDx=0;exitDy=0;" parent="1" source="35" edge="1">
                    <mxGeometry x="-1" relative="1" as="geometry">
                        <mxPoint x="472.5" y="1310" as="targetPoint"/>
                        <mxPoint x="482.5" y="1250" as="sourcePoint"/>
                    </mxGeometry>
                </mxCell>
                <mxCell id="39" value="Pay other player rent" style="html=1;" parent="1" vertex="1">
                    <mxGeometry x="367.5" y="1310" width="220" height="50" as="geometry"/>
                </mxCell>
                <mxCell id="42" value="" style="endArrow=open;endFill=1;endSize=12;html=1;exitX=0.5;exitY=1;exitDx=0;exitDy=0;entryX=0.5;entryY=0;entryDx=0;entryDy=0;" parent="1" source="39" target="34" edge="1">
                    <mxGeometry width="160" relative="1" as="geometry">
                        <mxPoint x="317.5" y="1270" as="sourcePoint"/>
                        <mxPoint x="477.5" y="1270" as="targetPoint"/>
                    </mxGeometry>
                </mxCell>
                <mxCell id="43" value="&lt;font style=&quot;font-size: 14px&quot;&gt;Is player on a &lt;br&gt;Baz Wisdom card?&lt;/font&gt;" style="rhombus;whiteSpace=wrap;html=1;strokeColor=#ff0001;" parent="1" vertex="1">
                    <mxGeometry x="352.5" y="650" width="190" height="100" as="geometry"/>
                </mxCell>
                <mxCell id="44" value="no" style="edgeStyle=orthogonalEdgeStyle;html=1;align=left;verticalAlign=bottom;endArrow=open;endSize=8;strokeColor=#ff0000;" parent="1" source="43" edge="1">
                    <mxGeometry y="-10" relative="1" as="geometry">
                        <mxPoint x="312.5" y="700" as="targetPoint"/>
                        <mxPoint as="offset"/>
                    </mxGeometry>
                </mxCell>
                <mxCell id="45" value="yes" style="edgeStyle=orthogonalEdgeStyle;html=1;align=left;verticalAlign=top;endArrow=open;endSize=8;strokeColor=#ff0000;" parent="1" source="43" edge="1">
                    <mxGeometry x="-1" relative="1" as="geometry">
                        <mxPoint x="447.5" y="790" as="targetPoint"/>
                    </mxGeometry>
                </mxCell>
                <mxCell id="46" value="&lt;font style=&quot;font-size: 14px&quot;&gt;Is player on Go to Jail?&lt;/font&gt;" style="rhombus;whiteSpace=wrap;html=1;strokeColor=#ff0001;" parent="1" vertex="1">
                    <mxGeometry x="122.5" y="650" width="190" height="100" as="geometry"/>
                </mxCell>
                <mxCell id="48" value="yes" style="edgeStyle=orthogonalEdgeStyle;html=1;align=left;verticalAlign=top;endArrow=open;endSize=8;strokeColor=#ff0000;" parent="1" source="46" edge="1">
                    <mxGeometry x="-1" relative="1" as="geometry">
                        <mxPoint x="217.5" y="790" as="targetPoint"/>
                    </mxGeometry>
                </mxCell>
                <mxCell id="55" value="Alert with quote from seeds" style="html=1;" parent="1" vertex="1">
                    <mxGeometry x="377.5" y="790" width="160" height="50" as="geometry"/>
                </mxCell>
                <mxCell id="56" value="Set Player position to jail psotion" style="html=1;" parent="1" vertex="1">
                    <mxGeometry x="122.5" y="790" width="190" height="50" as="geometry"/>
                </mxCell>
                <mxCell id="62" value="&lt;font style=&quot;font-size: 14px&quot;&gt;Does the player have £50&lt;br&gt;&lt;/font&gt;" style="rhombus;whiteSpace=wrap;html=1;strokeColor=#ff0001;" parent="1" vertex="1">
                    <mxGeometry x="345" y="170" width="190" height="100" as="geometry"/>
                </mxCell>
                <mxCell id="63" value="no" style="edgeStyle=orthogonalEdgeStyle;html=1;align=left;verticalAlign=bottom;endArrow=open;endSize=8;strokeColor=#ff0000;entryX=0;entryY=0.5;entryDx=0;entryDy=0;exitX=0;exitY=0.5;exitDx=0;exitDy=0;" parent="1" source="62" target="33" edge="1">
                    <mxGeometry x="-0.9814" y="-20" relative="1" as="geometry">
                        <mxPoint x="30" y="1020" as="targetPoint"/>
                        <mxPoint as="offset"/>
                        <mxPoint x="210" y="210" as="sourcePoint"/>
                        <Array as="points">
                            <mxPoint x="20" y="220"/>
                            <mxPoint x="20" y="1185"/>
                        </Array>
                    </mxGeometry>
                </mxCell>
                <mxCell id="64" value="yes" style="edgeStyle=orthogonalEdgeStyle;html=1;align=left;verticalAlign=top;endArrow=open;endSize=8;strokeColor=#ff0000;exitX=0.5;exitY=1;exitDx=0;exitDy=0;" parent="1" source="62" edge="1">
                    <mxGeometry x="-1" relative="1" as="geometry">
                        <mxPoint x="440" y="320" as="targetPoint"/>
                    </mxGeometry>
                </mxCell>
                <mxCell id="65" value="Pay £50 fine" style="html=1;" parent="1" vertex="1">
                    <mxGeometry x="382.5" y="320" width="115" height="50" as="geometry"/>
                </mxCell>
                <mxCell id="66" value="" style="endArrow=open;endFill=1;endSize=12;html=1;exitX=1;exitY=0.5;exitDx=0;exitDy=0;entryX=0;entryY=0.5;entryDx=0;entryDy=0;" parent="1" source="65" target="10" edge="1">
                    <mxGeometry width="160" relative="1" as="geometry">
                        <mxPoint x="300" y="490" as="sourcePoint"/>
                        <mxPoint x="460" y="490" as="targetPoint"/>
                    </mxGeometry>
                </mxCell>
                <mxCell id="70" value="&lt;font style=&quot;font-size: 14px&quot;&gt;Did the player pass GO?&lt;/font&gt;" style="rhombus;whiteSpace=wrap;html=1;strokeColor=#ff0001;" parent="1" vertex="1">
                    <mxGeometry x="582.5" y="500" width="190" height="100" as="geometry"/>
                </mxCell>
                <mxCell id="71" value="yes" style="edgeStyle=orthogonalEdgeStyle;html=1;align=left;verticalAlign=bottom;endArrow=open;endSize=8;strokeColor=#ff0000;" parent="1" source="70" edge="1">
                    <mxGeometry y="-10" relative="1" as="geometry">
                        <mxPoint x="542.5" y="550" as="targetPoint"/>
                        <mxPoint as="offset"/>
                    </mxGeometry>
                </mxCell>
                <mxCell id="72" value="no" style="edgeStyle=orthogonalEdgeStyle;html=1;align=left;verticalAlign=top;endArrow=open;endSize=8;strokeColor=#ff0000;exitX=0.5;exitY=1;exitDx=0;exitDy=0;entryX=0.5;entryY=0;entryDx=0;entryDy=0;" parent="1" source="70" edge="1">
                    <mxGeometry x="-1" relative="1" as="geometry">
                        <mxPoint x="677.5" y="650" as="targetPoint"/>
                        <mxPoint x="482.5" y="950" as="sourcePoint"/>
                    </mxGeometry>
                </mxCell>
                <mxCell id="73" value="Collect £200" style="html=1;" parent="1" vertex="1">
                    <mxGeometry x="382.5" y="520" width="160" height="50" as="geometry"/>
                </mxCell>
                <mxCell id="74" value="" style="endArrow=open;endFill=1;endSize=12;html=1;exitX=0.5;exitY=1;exitDx=0;exitDy=0;entryX=0;entryY=0;entryDx=0;entryDy=0;" parent="1" source="73" target="18" edge="1">
                    <mxGeometry width="160" relative="1" as="geometry">
                        <mxPoint x="280" y="610" as="sourcePoint"/>
                        <mxPoint x="440" y="610" as="targetPoint"/>
                    </mxGeometry>
                </mxCell>
                <mxCell id="75" value="" style="endArrow=open;endFill=1;endSize=12;html=1;exitX=0.75;exitY=1;exitDx=0;exitDy=0;entryX=0.5;entryY=0;entryDx=0;entryDy=0;" edge="1" parent="1" source="15" target="70">
                    <mxGeometry width="160" relative="1" as="geometry">
                        <mxPoint x="330" y="530" as="sourcePoint"/>
                        <mxPoint x="490" y="530" as="targetPoint"/>
                    </mxGeometry>
                </mxCell>
                <mxCell id="76" value="yes" style="edgeStyle=orthogonalEdgeStyle;html=1;align=left;verticalAlign=top;endArrow=open;endSize=8;strokeColor=#ff0000;exitX=0.5;exitY=1;exitDx=0;exitDy=0;entryX=0.5;entryY=0;entryDx=0;entryDy=0;" edge="1" parent="1" source="18" target="22">
                    <mxGeometry x="-1" relative="1" as="geometry">
                        <mxPoint x="673" y="950" as="targetPoint"/>
                        <mxPoint x="672.5" y="750" as="sourcePoint"/>
                        <Array as="points">
                            <mxPoint x="678" y="870"/>
                            <mxPoint x="678" y="870"/>
                        </Array>
                    </mxGeometry>
                </mxCell>
                <mxCell id="77" value="no" style="edgeStyle=orthogonalEdgeStyle;html=1;align=left;verticalAlign=bottom;endArrow=open;endSize=8;strokeColor=#ff0000;entryX=1;entryY=0.5;entryDx=0;entryDy=0;exitX=0;exitY=0.5;exitDx=0;exitDy=0;" edge="1" parent="1" source="22" target="25">
                    <mxGeometry y="-10" relative="1" as="geometry">
                        <mxPoint x="560" y="1090" as="targetPoint"/>
                        <mxPoint as="offset"/>
                        <mxPoint x="590" y="1090" as="sourcePoint"/>
                        <Array as="points">
                            <mxPoint x="575" y="1040"/>
                            <mxPoint x="575" y="1040"/>
                        </Array>
                    </mxGeometry>
                </mxCell>
            </root>
        </mxGraphModel>
    </diagram>
</mxfile>